<mxfile host="app.diagrams.net" agent="Mozilla/5.0 (Windows NT 10.0; Win64; x64) AppleWebKit/537.36 (KHTML, like Gecko) Chrome/134.0.0.0 Safari/537.36 Edg/134.0.0.0" version="26.1.1">
  <diagram id="WI9T0HZ2pTsCkuznbFz-" name="Page-1">
    <mxGraphModel dx="2066" dy="747" grid="1" gridSize="10" guides="1" tooltips="1" connect="1" arrows="1" fold="1" page="1" pageScale="1" pageWidth="1169" pageHeight="827" math="0" shadow="0">
      <root>
        <mxCell id="0" />
        <mxCell id="1" parent="0" />
        <mxCell id="lc0aXs-TQI58GyK_cuAY-20" style="edgeStyle=orthogonalEdgeStyle;rounded=0;orthogonalLoop=1;jettySize=auto;html=1;" edge="1" parent="1" source="lc0aXs-TQI58GyK_cuAY-12" target="lc0aXs-TQI58GyK_cuAY-18">
          <mxGeometry relative="1" as="geometry" />
        </mxCell>
        <mxCell id="lc0aXs-TQI58GyK_cuAY-21" style="edgeStyle=orthogonalEdgeStyle;rounded=0;orthogonalLoop=1;jettySize=auto;html=1;entryX=0;entryY=0.5;entryDx=0;entryDy=0;" edge="1" parent="1" source="lc0aXs-TQI58GyK_cuAY-12" target="lc0aXs-TQI58GyK_cuAY-19">
          <mxGeometry relative="1" as="geometry" />
        </mxCell>
        <mxCell id="lc0aXs-TQI58GyK_cuAY-12" value="" style="whiteSpace=wrap;html=1;fillColor=none;" vertex="1" parent="1">
          <mxGeometry x="320" y="120" width="390" height="310" as="geometry" />
        </mxCell>
        <mxCell id="lc0aXs-TQI58GyK_cuAY-2" value="" style="image;sketch=0;aspect=fixed;html=1;points=[];align=center;fontSize=12;image=img/lib/mscae/Virtual_Network.svg;" vertex="1" parent="1">
          <mxGeometry x="330" y="100" width="50" height="28.000000000000004" as="geometry" />
        </mxCell>
        <mxCell id="lc0aXs-TQI58GyK_cuAY-13" value="Hub vNet" style="text;strokeColor=none;align=center;fillColor=none;html=1;verticalAlign=middle;whiteSpace=wrap;rounded=0;" vertex="1" parent="1">
          <mxGeometry x="380" y="90" width="60" height="30" as="geometry" />
        </mxCell>
        <mxCell id="lc0aXs-TQI58GyK_cuAY-14" value="" style="image;sketch=0;aspect=fixed;html=1;points=[];align=center;fontSize=12;image=img/lib/mscae/Azure_Firewall.svg;" vertex="1" parent="1">
          <mxGeometry x="555" y="240" width="60" height="60" as="geometry" />
        </mxCell>
        <mxCell id="lc0aXs-TQI58GyK_cuAY-16" value="" style="image;sketch=0;aspect=fixed;html=1;points=[];align=center;fontSize=12;image=img/lib/mscae/VPN_Gateway.svg;" vertex="1" parent="1">
          <mxGeometry x="410" y="230" width="63" height="70" as="geometry" />
        </mxCell>
        <mxCell id="lc0aXs-TQI58GyK_cuAY-17" value="" style="image;sketch=0;aspect=fixed;html=1;points=[];align=center;fontSize=12;image=img/lib/mscae/Express_Route.svg;" vertex="1" parent="1">
          <mxGeometry x="180" y="210" width="140" height="84" as="geometry" />
        </mxCell>
        <mxCell id="lc0aXs-TQI58GyK_cuAY-18" value="" style="whiteSpace=wrap;html=1;fillColor=none;" vertex="1" parent="1">
          <mxGeometry x="820" y="20" width="250" height="200" as="geometry" />
        </mxCell>
        <mxCell id="lc0aXs-TQI58GyK_cuAY-19" value="" style="whiteSpace=wrap;html=1;fillColor=none;" vertex="1" parent="1">
          <mxGeometry x="820" y="280" width="250" height="200" as="geometry" />
        </mxCell>
        <mxCell id="lc0aXs-TQI58GyK_cuAY-22" value="" style="sketch=0;verticalLabelPosition=bottom;sketch=0;aspect=fixed;html=1;verticalAlign=top;strokeColor=none;fillColor=#000000;align=center;outlineConnect=0;pointerEvents=1;shape=mxgraph.citrix2.office;" vertex="1" parent="1">
          <mxGeometry x="37.809999999999945" y="170" width="142.19" height="140" as="geometry" />
        </mxCell>
        <mxCell id="lc0aXs-TQI58GyK_cuAY-23" value="Peer" style="text;strokeColor=none;align=center;fillColor=none;html=1;verticalAlign=middle;whiteSpace=wrap;rounded=0;" vertex="1" parent="1">
          <mxGeometry x="710" y="250" width="60" height="30" as="geometry" />
        </mxCell>
        <mxCell id="lc0aXs-TQI58GyK_cuAY-26" value="" style="image;sketch=0;aspect=fixed;html=1;points=[];align=center;fontSize=12;image=img/lib/mscae/Virtual_Machine.svg;" vertex="1" parent="1">
          <mxGeometry x="920" y="60" width="50" height="46" as="geometry" />
        </mxCell>
        <mxCell id="lc0aXs-TQI58GyK_cuAY-27" value="" style="image;sketch=0;aspect=fixed;html=1;points=[];align=center;fontSize=12;image=img/lib/mscae/Virtual_Machine.svg;" vertex="1" parent="1">
          <mxGeometry x="860" y="60" width="50" height="46" as="geometry" />
        </mxCell>
        <mxCell id="lc0aXs-TQI58GyK_cuAY-28" value="" style="image;sketch=0;aspect=fixed;html=1;points=[];align=center;fontSize=12;image=img/lib/mscae/VM_Scale_Set.svg;" vertex="1" parent="1">
          <mxGeometry x="990" y="60" width="50" height="50" as="geometry" />
        </mxCell>
        <mxCell id="lc0aXs-TQI58GyK_cuAY-29" value="" style="image;sketch=0;aspect=fixed;html=1;points=[];align=center;fontSize=12;image=img/lib/mscae/SQL_Servers.svg;" vertex="1" parent="1">
          <mxGeometry x="880" y="340" width="50" height="50" as="geometry" />
        </mxCell>
        <mxCell id="lc0aXs-TQI58GyK_cuAY-30" value="" style="image;sketch=0;aspect=fixed;html=1;points=[];align=center;fontSize=12;image=img/lib/mscae/SQL_Servers.svg;" vertex="1" parent="1">
          <mxGeometry x="960" y="340" width="50" height="50" as="geometry" />
        </mxCell>
        <mxCell id="lc0aXs-TQI58GyK_cuAY-31" value="" style="image;sketch=0;aspect=fixed;html=1;points=[];align=center;fontSize=12;image=img/lib/mscae/Managed_Identities.svg;" vertex="1" parent="1">
          <mxGeometry x="320" y="370" width="38" height="50" as="geometry" />
        </mxCell>
        <mxCell id="lc0aXs-TQI58GyK_cuAY-32" value="" style="image;sketch=0;aspect=fixed;html=1;points=[];align=center;fontSize=12;image=img/lib/mscae/Storage_Accounts.svg;" vertex="1" parent="1">
          <mxGeometry x="860" y="140" width="50" height="45" as="geometry" />
        </mxCell>
        <mxCell id="lc0aXs-TQI58GyK_cuAY-33" value="" style="image;sketch=0;aspect=fixed;html=1;points=[];align=center;fontSize=12;image=img/lib/mscae/Storage_Accounts.svg;" vertex="1" parent="1">
          <mxGeometry x="940" y="140" width="50" height="45" as="geometry" />
        </mxCell>
        <mxCell id="lc0aXs-TQI58GyK_cuAY-34" value="" style="image;sketch=0;aspect=fixed;html=1;points=[];align=center;fontSize=12;image=img/lib/mscae/App_Services.svg;" vertex="1" parent="1">
          <mxGeometry x="1010" y="140" width="50" height="50" as="geometry" />
        </mxCell>
      </root>
    </mxGraphModel>
  </diagram>
</mxfile>
